# xmcd
#
# Track frame offsets: 
#        150
#        900
#        1650
#        2400
#        3150
#        120220
#
# Disc length: 4440 seconds
#
# Revision: 0
# Processed by: cddbd v1.5PL3 Copyright (c) Steve Scherf et al.
# Submitted via: ExactAudioCopy v0.95a3
#
DISCID=1d115606
DTITLE=Mikuni Shimokawa - Sorega,ai de shou
DYEAR=2003
DGENRE=JPop
TTITLE0=Sorega, ai de shou
TTITLE1=kimi ni fuku kaze
TTITLE2=Arekara
TTITLE3=Sorega, ai de shou -Instrumental-
TTITLE4=kimi ni fuku kaze -Instrumental-
TTITLE5=CCCD DataTrack
EXTD=
EXTT0=
EXTT1=
EXTT2=
EXTT3=
EXTT4=
EXTT5=
PLAYORDER=
